<svg width="46" height="46" viewBox="0 0 46 46" fill="none" xmlns="http://www.w3.org/2000/svg">
    <rect width="46" height="46" rx="23" fill="#DDFFE6"/>
    <path d="M17 33a2.893 2.893 0 0 1-2.125-.875A2.893 2.893 0 0 1 14 30V16c0-.833.292-1.542.875-2.125A2.893 2.893 0 0 1 17 13h11v16H17a.968.968 0 0 0-.712.288A.968.968 0 0 0 16 30c0 .283.096.52.288.712.191.192.429.288.712.288h13V15h2v18H17zm3-6h6V15h-6v12zm-2 0V15h-1a.968.968 0 0 0-.712.287A.968.968 0 0 0 16 16v11.175c.167-.05.33-.092.488-.125.158-.033.329-.05.512-.05h1z" fill="#1D8953"/>
</svg>
