<svg width="18" height="18" viewBox="0 0 18 18" fill="none" xmlns="http://www.w3.org/2000/svg">
    <g clip-path="url(#9fuw1dxyna)">
        <path fill-rule="evenodd" clip-rule="evenodd" d="M3.281 0h.388c.915 0 1.64 0 2.224.053.597.053 1.102.166 1.564.425A4.146 4.146 0 0 1 9 2.02 4.146 4.146 0 0 1 10.543.478c.462-.26.967-.372 1.565-.425C12.691 0 13.415 0 14.33 0h.388c.447 0 .82 0 1.125.027.318.03.617.091.899.25.433.243.785.631 1.006 1.109.144.311.2.64.226.991.025.336.025.748.025 1.241v7.995c0 .493 0 .904-.025 1.24-.026.351-.082.68-.226.992-.22.477-.573.866-1.006 1.11-.282.158-.581.22-.9.248-.304.028-.677.028-1.124.028h-1.177c-1.088 0-1.5.007-1.866.13a2.65 2.65 0 0 0-.937.552c-.295.268-.53.642-1.133 1.64l-.084.139A.615.615 0 0 1 9 18a.615.615 0 0 1-.522-.308l-.084-.139c-.603-.998-.838-1.372-1.133-1.64a2.65 2.65 0 0 0-.937-.553c-.366-.122-.778-.13-1.866-.13H3.281c-.447 0-.82 0-1.125-.027-.318-.028-.617-.09-.899-.249a2.434 2.434 0 0 1-1.006-1.11c-.144-.31-.2-.64-.226-.99A18.134 18.134 0 0 1 0 11.613V3.618c0-.493 0-.905.025-1.24.026-.351.082-.68.226-.992C.47.908.824.52 1.257.276c.282-.158.581-.22.9-.249C2.46 0 2.833 0 3.28 0zm5.091 6.6c0-1.045 0-1.788-.043-2.369-.043-.573-.124-.927-.253-1.208a2.876 2.876 0 0 0-1.19-1.311c-.254-.144-.576-.233-1.096-.28-.527-.047-1.2-.047-2.148-.047h-.335c-.48 0-.8 0-1.049.022-.24.022-.355.06-.43.103-.198.111-.358.288-.458.505-.039.083-.074.21-.093.475-.02.273-.021.628-.021 1.156v7.939c0 .528 0 .883.02 1.156.02.265.055.392.094.475.1.217.26.394.457.504.076.043.191.082.431.103.248.023.57.023 1.049.023h1.252c.951 0 1.564 0 2.13.19.5.167.966.441 1.37.808.11.1.213.207.313.326V6.6zm1.256 8.57c.1-.119.204-.227.314-.326.403-.367.869-.641 1.37-.809.565-.19 1.178-.19 2.129-.189h1.252c.48 0 .8 0 1.049-.023.24-.021.355-.06.43-.103.198-.11.358-.287.458-.504.039-.083.074-.21.094-.475.02-.273.02-.628.02-1.156V3.646c0-.528 0-.883-.02-1.156-.02-.265-.055-.392-.094-.475-.1-.217-.26-.394-.457-.505-.076-.042-.191-.08-.431-.103-.248-.022-.57-.022-1.049-.022h-.335c-.948 0-1.621 0-2.148.048-.52.046-.842.135-1.096.279a2.876 2.876 0 0 0-1.19 1.31c-.13.282-.21.636-.253 1.21-.043.58-.043 1.323-.043 2.368v8.57z" fill="#fff"/>
    </g>
    <defs>
        <clipPath id="9fuw1dxyna">
            <path fill="#fff" d="M0 0h18v18H0z"/>
        </clipPath>
    </defs>
</svg>
