<svg width="18" height="18" viewBox="0 0 18 18" fill="none" xmlns="http://www.w3.org/2000/svg">
<g clip-path="url(#clip0_3729_2423)">
<path fill-rule="evenodd" clip-rule="evenodd" d="M0.564866 3.13713C0.926543 2.77545 1.41708 2.57227 1.92857 2.57227C2.28361 2.57227 2.57143 2.86008 2.57143 3.21512C2.57143 3.57016 2.28361 3.85798 1.92857 3.85798C1.75807 3.85798 1.59456 3.92571 1.474 4.04627C1.35344 4.16683 1.28571 4.33034 1.28571 4.50084V16.0723C1.28571 16.2428 1.35344 16.4063 1.474 16.5268C1.59456 16.6474 1.75808 16.7151 1.92857 16.7151H16.0714C16.2419 16.7151 16.4054 16.6474 16.526 16.5268C16.6466 16.4063 16.7143 16.2428 16.7143 16.0723V4.50084C16.7143 4.33034 16.6466 4.16683 16.526 4.04627C16.4054 3.92571 16.2419 3.85798 16.0714 3.85798H13.5C13.145 3.85798 12.8571 3.57016 12.8571 3.21512C12.8571 2.86008 13.145 2.57227 13.5 2.57227H16.0714C16.5829 2.57227 17.0735 2.77545 17.4351 3.13713C17.7968 3.49881 18 3.98935 18 4.50084V16.0723C18 16.5838 17.7968 17.0743 17.4351 17.436C17.0735 17.7976 16.5829 18.0008 16.0714 18.0008H1.92857C1.41708 18.0008 0.926543 17.7976 0.564866 17.436C0.203188 17.0743 0 16.5838 0 16.0723V4.50084C0 3.98935 0.203188 3.49881 0.564866 3.13713Z" fill="white"/>
<path fill-rule="evenodd" clip-rule="evenodd" d="M4.49833 0C4.85337 0 5.14118 0.287817 5.14118 0.642857V5.78571C5.14118 6.14075 4.85337 6.42857 4.49833 6.42857C4.14329 6.42857 3.85547 6.14075 3.85547 5.78571V0.642857C3.85547 0.287817 4.14329 0 4.49833 0Z" fill="white"/>
<path fill-rule="evenodd" clip-rule="evenodd" d="M13.4983 0C13.8534 0 14.1412 0.287817 14.1412 0.642857V5.78571C14.1412 6.14075 13.8534 6.42857 13.4983 6.42857C13.1433 6.42857 12.8555 6.14075 12.8555 5.78571V0.642857C12.8555 0.287817 13.1433 0 13.4983 0Z" fill="white"/>
<path fill-rule="evenodd" clip-rule="evenodd" d="M3.85547 3.21512C3.85547 2.86008 4.14329 2.57227 4.49833 2.57227H10.9269C11.2819 2.57227 11.5698 2.86008 11.5698 3.21512C11.5698 3.57016 11.2819 3.85798 10.9269 3.85798H4.49833C4.14329 3.85798 3.85547 3.57016 3.85547 3.21512Z" fill="white"/>
<path fill-rule="evenodd" clip-rule="evenodd" d="M5.14453 10.2854C5.14453 9.9304 5.43235 9.64258 5.78739 9.64258H12.216C12.571 9.64258 12.8588 9.9304 12.8588 10.2854C12.8588 10.6405 12.571 10.9283 12.216 10.9283H5.78739C5.43235 10.9283 5.14453 10.6405 5.14453 10.2854Z" fill="white"/>
<path fill-rule="evenodd" clip-rule="evenodd" d="M8.99833 6.42773C9.35337 6.42773 9.64118 6.71555 9.64118 7.07059V13.4992C9.64118 13.8542 9.35337 14.142 8.99833 14.142C8.64329 14.142 8.35547 13.8542 8.35547 13.4992V7.07059C8.35547 6.71555 8.64329 6.42773 8.99833 6.42773Z" fill="white"/>
</g>
<defs>
<clipPath id="clip0_3729_2423">
<rect width="18" height="18" fill="white"/>
</clipPath>
</defs>
</svg>
