<svg width="18" height="18" viewBox="0 0 18 18" fill="none" xmlns="http://www.w3.org/2000/svg">
    <g clip-path="url(#njyngfusfa)" fill-rule="evenodd" clip-rule="evenodd" fill="#fff">
        <path d="M8.545.203a.61.61 0 0 1 .91 0l8.357 9a.73.73 0 0 1 0 .979.61.61 0 0 1-.91 0L9 1.672l-7.903 8.51a.61.61 0 0 1-.909 0 .73.73 0 0 1 0-.98l8.357-9z"/>
        <path d="M3.214 6.23c.355 0 .643.31.643.693v9h10.286v-9c0-.383.287-.693.643-.693.355 0 .642.31.642.693v9.692c0 .382-.287.692-.642.692H3.214c-.355 0-.643-.31-.643-.692V6.923c0-.383.288-.693.643-.693z"/>
        <path d="M9 11.77c.355 0 .643.31.643.692v4.154c0 .382-.288.692-.643.692-.355 0-.643-.31-.643-.692v-4.154c0-.383.288-.692.643-.692zM9 6.232c-.533 0-.964.465-.964 1.039 0 .573.431 1.038.964 1.038.533 0 .964-.465.964-1.038 0-.574-.431-1.039-.964-1.039zM6.75 7.271c0-1.338 1.007-2.423 2.25-2.423s2.25 1.085 2.25 2.423S10.243 9.694 9 9.694 6.75 8.609 6.75 7.27z"/>
    </g>
    <defs>
        <clipPath id="njyngfusfa">
            <path fill="#fff" d="M0 0h18v18H0z"/>
        </clipPath>
    </defs>
</svg>
