<svg width="46" height="46" viewBox="0 0 46 46" fill="none" xmlns="http://www.w3.org/2000/svg">
    <rect width="46" height="46" rx="23" fill="#E1DFFF"/>
    <path d="M13 32V20l8-6 5.375 4.05c-.417.05-.808.146-1.175.287-.367.142-.717.33-1.05.563L21 16.5 15 21v9h4v2h-6zm8 0v-1.9c0-.35.087-.68.262-.988.175-.308.413-.554.713-.737.767-.45 1.57-.792 2.412-1.025A9.735 9.735 0 0 1 27 27c.9 0 1.77.117 2.613.35.841.233 1.645.575 2.412 1.025.3.183.538.43.712.738.175.308.263.637.263.987V32H21zm2.15-2h7.7a7.436 7.436 0 0 0-1.85-.75 8.019 8.019 0 0 0-2-.25c-.683 0-1.35.083-2 .25a7.436 7.436 0 0 0-1.85.75zM27 26a2.893 2.893 0 0 1-2.125-.875A2.893 2.893 0 0 1 24 23c0-.833.292-1.542.875-2.125A2.893 2.893 0 0 1 27 20c.833 0 1.542.292 2.125.875S30 22.167 30 23s-.292 1.542-.875 2.125A2.893 2.893 0 0 1 27 26zm0-2c.283 0 .52-.096.712-.288A.968.968 0 0 0 28 23a.968.968 0 0 0-.288-.712A.968.968 0 0 0 27 22a.968.968 0 0 0-.712.288A.968.968 0 0 0 26 23c0 .283.096.52.288.712.191.192.429.288.712.288z" fill="#5451B8"/>
</svg>
