<svg width="24" height="25" viewBox="0 0 24 25" fill="none" xmlns="http://www.w3.org/2000/svg">
    <path fill-rule="evenodd" clip-rule="evenodd" d="M3.428 2.214a1.714 1.714 0 1 0 0 3.429 1.714 1.714 0 0 0 0-3.429zM0 3.93a3.428 3.428 0 1 1 6.857 0 3.428 3.428 0 0 1-6.857 0zM3.428 10.785a1.714 1.714 0 1 0 0 3.428 1.714 1.714 0 0 0 0-3.428zM0 12.499a3.428 3.428 0 1 1 6.857 0 3.428 3.428 0 0 1-6.857 0zM11.999 2.214a1.714 1.714 0 1 0 0 3.429 1.714 1.714 0 0 0 0-3.429zM8.57 3.93a3.428 3.428 0 1 1 6.857 0 3.428 3.428 0 0 1-6.857 0zM11.999 10.785a1.714 1.714 0 1 0 0 3.428 1.714 1.714 0 0 0 0-3.428zM8.57 12.499a3.428 3.428 0 1 1 6.857 0 3.428 3.428 0 0 1-6.857 0zM11.999 19.359a1.714 1.714 0 1 0 0 3.428 1.714 1.714 0 0 0 0-3.428zM8.57 21.073a3.428 3.428 0 1 1 6.857 0 3.428 3.428 0 0 1-6.857 0zM20.57 2.214a1.714 1.714 0 1 0 .001 3.429 1.714 1.714 0 0 0 0-3.429zM17.144 3.93a3.428 3.428 0 1 1 6.857 0 3.428 3.428 0 0 1-6.857 0zM20.57 10.785a1.714 1.714 0 1 0 .001 3.428 1.714 1.714 0 0 0 0-3.428zm-3.427 1.714a3.428 3.428 0 1 1 6.857 0 3.428 3.428 0 0 1-6.857 0zM3.428 19.355a1.714 1.714 0 1 0 0 3.428 1.714 1.714 0 0 0 0-3.428zM0 21.069a3.429 3.429 0 1 1 6.857 0 3.429 3.429 0 0 1-6.857 0zM20.57 19.359a1.714 1.714 0 1 0 .001 3.428 1.714 1.714 0 0 0 0-3.428zm-3.427 1.714a3.428 3.428 0 1 1 6.857 0 3.428 3.428 0 0 1-6.857 0z" fill="#fff"/>
</svg>
