<svg width="46" height="46" viewBox="0 0 46 46" fill="none" xmlns="http://www.w3.org/2000/svg">
    <rect width="46" height="46" rx="23" fill="#FFF9ED"/>
    <path d="M16.572 32h-1.286l-.836-2.571h-1.736v-6.461c0-.707.252-1.307.756-1.8a2.503 2.503 0 0 1 1.816-.74v-3.857c0-.707.252-1.312.755-1.816A2.476 2.476 0 0 1 17.857 14h10.286c.707 0 1.312.252 1.816.755.504.504.755 1.11.755 1.816v3.858c.708 0 1.313.251 1.816.755.504.503.756 1.109.756 1.816v6.429H31.55L30.714 32H29.43l-.836-2.571H17.407L16.572 32zm7.714-11.571h3.857V16.57h-3.857v3.858zm-6.429 0h3.857V16.57h-3.857v3.858zm-2.571 6.428h15.428V23H15.286v3.857z" fill="#FEC757"/>
</svg>
